<?xml version="1.0" encoding="utf-8"?>
<!DOCTYPE svg PUBLIC "-//W3C//DTD SVG 1.0//EN" "http://www.w3.org/TR/2001/REC-SVG-20010904/DTD/svg10.dtd">
<svg version="1.0" xmlns="http://www.w3.org/2000/svg" width="158px" height="201px" viewBox="0 0 158 201" preserveAspectRatio="xMidYMid meet">
 <g fill="#ffffff">
  <path d="M55 162.8 c-28.3 -31.4 -31.1 -34.8 -35.6 -44.3 -8.8 -18.5 -8.4 -37.5 1.3 -57.4 7.7 -15.6 20.6 -26.9 37.5 -32.8 9.9 -3.5 26.2 -4.3 37.2 -1.9 22.6 5.1 41.2 22.1 48.6 44.6 6 18.3 2.7 41.1 -8.3 56.8 -4.2 6 -54.4 62.2 -55.6 62.2 -0.3 0 -11.6 -12.3 -25.1 -27.2z m38.9 -20.3 c8.8 -2.3 16.2 -6.6 23.2 -13.5 21 -20.6 21.2 -53.8 0.4 -74.5 -25.5 -25.5 -68.8 -18.4 -84.5 14 -17.2 35.3 7.6 75.4 46.5 75.5 5 0 11.4 -0.7 14.4 -1.5z"/>
  <path d="M71.2 132.5 c-16.4 -3.6 -29.2 -17.2 -32.4 -34.3 -3.3 -17.6 6.9 -36.4 23.9 -44.5 6.3 -3 7.5 -3.2 17.4 -3.2 10.1 0 10.8 0.1 18 3.7 28.5 14.1 32.2 51.9 7 70.8 -9.8 7.4 -22.2 10.1 -33.9 7.5z m0.2 -17.1 c1.1 -1 1.6 -3.4 1.6 -7.5 l0 -5.9 7.9 0 c9 0 12.4 -1 16.5 -4.8 5.9 -5.5 7.2 -13.7 3.4 -21.2 -4.1 -8 -9 -9.9 -25 -10 -14.4 0 -13.8 -1.1 -13.8 25.3 0 17.6 0.3 21.6 1.6 23.5 1.8 2.6 5.6 2.9 7.8 0.6z"/>
  <path d="M73 84 l0 -7 6.9 0 c8.2 0 12.1 2.3 12.1 7.1 0 5.1 -2.9 6.9 -11.5 6.9 l-7.5 0 0 -7z"/>
 </g>
</svg>